<?xml version="1.0" standalone="no"?>
<!DOCTYPE svg PUBLIC "-//W3C//DTD SVG 20010904//EN"
 "http://www.w3.org/TR/2001/REC-SVG-20010904/DTD/svg10.dtd">
<svg version="1.0" xmlns="http://www.w3.org/2000/svg"
 width="260.000000pt" height="260.000000pt" viewBox="0 0 260.000000 260.000000"
 preserveAspectRatio="xMidYMid meet">
<metadata>
Created by potrace 1.11, written by Peter Selinger 2001-2013
</metadata>
<g transform="translate(0.000000,260.000000) scale(0.100000,-0.100000)"
fill="#000000" stroke="none">
<path d="M1192 2366 c-5 -6 -11 -20 -14 -31 -3 -11 -71 -200 -152 -420 -81
-220 -152 -413 -157 -430 -6 -16 -15 -39 -19 -50 -5 -11 -24 -63 -43 -115 -19
-52 -55 -152 -81 -221 -25 -69 -46 -130 -46 -136 0 -8 28 -11 82 -10 l81 2 65
190 c36 105 70 193 76 197 5 3 34 6 63 6 55 -2 58 -5 54 -50 -4 -36 30 -141
59 -183 52 -75 118 -123 283 -205 238 -119 299 -175 313 -288 9 -74 -10 -127
-65 -181 -38 -39 -59 -51 -113 -66 -86 -23 -239 -16 -348 15 -112 32 -108 33
-136 -34 -13 -33 -24 -61 -24 -63 0 -12 121 -46 215 -60 56 -8 241 -8 295 0
213 33 348 187 345 394 -2 83 -24 150 -69 208 -34 45 -97 104 -109 105 -5 0
-6 4 -3 9 3 5 15 7 26 4 22 -6 25 4 10 39 -13 32 -200 546 -200 551 0 4 48 -3
128 -17 18 -4 56 -15 84 -26 29 -11 52 -19 53 -17 6 9 45 120 45 126 0 23
-140 59 -265 67 -49 4 -93 9 -97 13 -3 3 -34 83 -68 176 -86 236 -183 499
-186 503 -7 9 -75 8 -82 -2z m135 -583 l40 -112 -76 -38 c-57 -29 -86 -51
-120 -93 -41 -50 -48 -55 -89 -58 -44 -2 -44 -2 -37 25 3 16 35 109 71 208 36
98 74 218 85 265 11 47 23 96 26 110 4 19 13 -3 33 -85 15 -60 45 -160 67
-222z m97 -269 c11 -28 7 -31 -44 -30 -27 0 -50 1 -50 2 0 6 66 44 76 44 7 0
15 -7 18 -16z m118 -322 c31 -87 54 -159 53 -160 -5 -5 -151 74 -199 108 -78
54 -126 123 -126 183 0 24 1 25 108 25 l108 0 56 -156z"/>
</g>
</svg>
