<?xml version="1.0" standalone="no"?><!-- Generator: Adobe Fireworks CS5, Export SVG Extension by Aaron Beall (http://fireworks.abeall.com) . Version: 0.6.1  --><!DOCTYPE svg PUBLIC "-//W3C//DTD SVG 1.1//EN" "http://www.w3.org/Graphics/SVG/1.1/DTD/svg11.dtd"><svg id="Untitled-Page%201" viewBox="0 0 381 290" style="background-color:#ffffff00" version="1.1"	xmlns="http://www.w3.org/2000/svg" xmlns:xlink="http://www.w3.org/1999/xlink" xml:space="preserve"	x="0px" y="0px" width="381px" height="290px">	<g id="Layer%201">		<g>			<path d="M 47 116 L 207 116 L 207 276 L 47 276 L 47 116 ZM 32 100 L 32 290 L 222 290 L 222 100 L 32 100 Z" fill="#000000"/>			<path d="M 34.75 138.5 C 39.75 145.5 48 148.3333 54 155.3333 C 49 148.3333 46 141 40 134 L 107.5 203.5 C 160.5 143.5 219.5 64.5 289.5 16.5 L 289.5 21.5 C 295.5 18.5 302.5 14.5 305.5 14.5 L 312.5 14.5 C 312.5 15.5 313.5 14.5 313.5 17.5 C 313.5 19.5 298.5 31.5 290.5 38.5 L 291 40.6667 C 299 35.6667 306.5 29.5 313.5 25.5 L 316.5 25.5 L 316.5 30.5 L 318.5 32.5 L 333.5 21.5 L 336.5 21.5 C 336.5 22.5 335.5 24.5 336.5 26.5 L 376.5 0.5 L 380.5 0.5 L 380.5 3.5 C 286.5 59.5 175.5 179.5 110.5 270.5 L 0.5 140.5 L 0.5 137.5 C 4.5 137.5 12.5 143.5 12.5 141.5 C 12.5 139.5 10.5 140.5 10.5 139.5 L 13.5 139.5 C 17.5 140.5 21.5 143.5 24.5 145.5 C 25.5 144.5 25.5 143.5 25.5 142.5 L 30.5 142.5 C 31.5 144.5 34.5 147.5 36.5 148.5 L 38.5 146.5 C 35.5 142.5 31.5 137.5 26.5 132.5 C 28.5 133.5 32.75 136.5 34.75 138.5 Z" fill="#d9a300"/>		</g>	</g></svg>